<svg width="150" height="42" viewBox="0 0 150 42" fill="none" xmlns="http://www.w3.org/2000/svg">
<rect width="150" height="42" rx="21" fill="#9953F1"/>
<path d="M57.9648 16.9287L54.6699 26H53.3232L57.1172 16.0469H57.9854L57.9648 16.9287ZM60.7266 26L57.4248 16.9287L57.4043 16.0469H58.2725L62.0801 26H60.7266ZM60.5557 22.3154V23.3955H54.9639V22.3154H60.5557ZM66.1064 26H64.0283L64.042 24.9268H66.1064C66.8174 24.9268 67.4098 24.7786 67.8838 24.4824C68.3577 24.1816 68.7132 23.7624 68.9502 23.2246C69.1917 22.6823 69.3125 22.0488 69.3125 21.3242V20.7158C69.3125 20.1462 69.2441 19.6403 69.1074 19.1982C68.9707 18.7516 68.7702 18.3757 68.5059 18.0703C68.2415 17.7604 67.918 17.5257 67.5352 17.3662C67.1569 17.2067 66.7217 17.127 66.2295 17.127H63.9873V16.0469H66.2295C66.8812 16.0469 67.4759 16.1562 68.0137 16.375C68.5514 16.5892 69.014 16.9014 69.4014 17.3115C69.7933 17.7171 70.0941 18.2093 70.3037 18.7881C70.5133 19.3623 70.6182 20.0094 70.6182 20.7295V21.3242C70.6182 22.0443 70.5133 22.6937 70.3037 23.2725C70.0941 23.8467 69.791 24.3366 69.3945 24.7422C69.0026 25.1478 68.5286 25.46 67.9727 25.6787C67.4212 25.8929 66.7992 26 66.1064 26ZM64.7324 16.0469V26H63.4131V16.0469H64.7324ZM75.2939 26H73.2158L73.2295 24.9268H75.2939C76.0049 24.9268 76.5973 24.7786 77.0713 24.4824C77.5452 24.1816 77.9007 23.7624 78.1377 23.2246C78.3792 22.6823 78.5 22.0488 78.5 21.3242V20.7158C78.5 20.1462 78.4316 19.6403 78.2949 19.1982C78.1582 18.7516 77.9577 18.3757 77.6934 18.0703C77.429 17.7604 77.1055 17.5257 76.7227 17.3662C76.3444 17.2067 75.9092 17.127 75.417 17.127H73.1748V16.0469H75.417C76.0687 16.0469 76.6634 16.1562 77.2012 16.375C77.7389 16.5892 78.2015 16.9014 78.5889 17.3115C78.9808 17.7171 79.2816 18.2093 79.4912 18.7881C79.7008 19.3623 79.8057 20.0094 79.8057 20.7295V21.3242C79.8057 22.0443 79.7008 22.6937 79.4912 23.2725C79.2816 23.8467 78.9785 24.3366 78.582 24.7422C78.1901 25.1478 77.7161 25.46 77.1602 25.6787C76.6087 25.8929 75.9867 26 75.2939 26ZM73.9199 16.0469V26H72.6006V16.0469H73.9199ZM88.665 16.0469V26H87.3662V16.0469H88.665ZM91.8643 16.0469V17.127H84.1738V16.0469H91.8643ZM96.4785 16.9287L93.1836 26H91.8369L95.6309 16.0469H96.499L96.4785 16.9287ZM99.2402 26L95.9385 16.9287L95.918 16.0469H96.7861L100.594 26H99.2402ZM99.0693 22.3154V23.3955H93.4775V22.3154H99.0693ZM107.231 23.4844C107.231 23.252 107.195 23.0469 107.122 22.8691C107.054 22.6868 106.931 22.5228 106.753 22.377C106.58 22.2311 106.338 22.0921 106.028 21.96C105.723 21.8278 105.336 21.6934 104.866 21.5566C104.374 21.4108 103.93 21.249 103.533 21.0713C103.137 20.889 102.797 20.6816 102.515 20.4492C102.232 20.2168 102.016 19.9502 101.865 19.6494C101.715 19.3486 101.64 19.0046 101.64 18.6172C101.64 18.2298 101.719 17.8721 101.879 17.5439C102.038 17.2158 102.266 16.931 102.562 16.6895C102.863 16.4434 103.221 16.252 103.636 16.1152C104.05 15.9785 104.513 15.9102 105.023 15.9102C105.771 15.9102 106.404 16.0537 106.924 16.3408C107.448 16.6234 107.847 16.9948 108.12 17.4551C108.394 17.9108 108.53 18.3984 108.53 18.918H107.218C107.218 18.5443 107.138 18.2139 106.979 17.9268C106.819 17.6351 106.577 17.4072 106.254 17.2432C105.93 17.0745 105.52 16.9902 105.023 16.9902C104.554 16.9902 104.167 17.0609 103.861 17.2021C103.556 17.3434 103.328 17.5348 103.178 17.7764C103.032 18.0179 102.959 18.2936 102.959 18.6035C102.959 18.8132 103.002 19.0046 103.089 19.1777C103.18 19.3464 103.319 19.5036 103.506 19.6494C103.697 19.7952 103.939 19.9297 104.23 20.0527C104.527 20.1758 104.88 20.2943 105.29 20.4082C105.855 20.5677 106.343 20.7454 106.753 20.9414C107.163 21.1374 107.5 21.3584 107.765 21.6045C108.034 21.846 108.232 22.1217 108.359 22.4316C108.492 22.737 108.558 23.0833 108.558 23.4707C108.558 23.8763 108.476 24.2432 108.312 24.5713C108.147 24.8994 107.913 25.1797 107.607 25.4121C107.302 25.6445 106.935 25.8245 106.507 25.9521C106.083 26.0752 105.609 26.1367 105.085 26.1367C104.625 26.1367 104.171 26.0729 103.725 25.9453C103.283 25.8177 102.879 25.6263 102.515 25.3711C102.155 25.1159 101.865 24.8014 101.646 24.4277C101.432 24.0495 101.325 23.612 101.325 23.1152H102.638C102.638 23.457 102.704 23.751 102.836 23.9971C102.968 24.2386 103.148 24.4391 103.376 24.5986C103.608 24.7581 103.87 24.8766 104.162 24.9541C104.458 25.027 104.766 25.0635 105.085 25.0635C105.545 25.0635 105.935 24.9997 106.254 24.8721C106.573 24.7445 106.814 24.5622 106.979 24.3252C107.147 24.0882 107.231 23.8079 107.231 23.4844ZM111.559 16.0469V26H110.239V16.0469H111.559ZM117.567 16.0469L113.432 20.6885L111.107 23.1016L110.889 21.6934L112.639 19.7656L115.981 16.0469H117.567ZM116.296 26L112.611 21.1465L113.397 20.1006L117.868 26H116.296Z" fill="white"/>
<rect width="42" height="42" rx="21" fill="#AA68FE"/>
<path d="M21.6084 20.6611H24.3838V21.8574H21.6084V25.002H20.3369V21.8574H17.5615V20.6611H20.3369V17.7559H21.6084V20.6611Z" fill="white"/>
</svg>
